<svg width="428" height="150" viewBox="0 0 428 150" fill="none" xmlns="http://www.w3.org/2000/svg">
    <g filter="url(#filter0_dd_12_25)">
        <path id="pStart"
            d="M52.2174 52L75.1414 52C78.0357 52 80.544 52.3161 82.6664 52.9482C84.7889 53.5803 86.5495 54.496 87.9484 55.6954C89.3473 56.8786 90.3844 58.3293 91.0597 60.0473C91.7511 61.7654 92.0968 63.7022 92.0968 65.8579C92.0968 67.8839 91.7592 69.756 91.0839 71.474C90.4085 73.1921 89.3714 74.6832 87.9725 75.9474C86.5897 77.1955 84.8371 78.1761 82.7147 78.8892C80.5922 79.5862 78.0839 79.9346 75.1897 79.9346L59.863 79.9103V89.9999H52.2174V52ZM75.3344 73.2488C76.7815 73.2488 78.0437 73.0786 79.121 72.7382C80.2144 72.3817 81.1228 71.8873 81.8464 71.2552C82.586 70.6069 83.1327 69.8289 83.4865 68.9212C83.8563 67.9974 84.0412 66.9763 84.0412 65.8579C84.0412 63.605 83.3096 61.8545 81.8464 60.6065C80.3993 59.3423 78.2286 58.7101 75.3344 58.7101H59.863V73.2488H75.3344Z"
            fill="white" />
        <path
            d="M102.05 52.0001H133.652V73.384H157.096V52.0001H164.765V90H157.096V79.9726H133.652V90H102.05V52.0001Z"
            fill="white" />
        <path d="M175.474 52.0001H183.12V83.2412H205.043V90H175.474V52.0001Z" fill="white" />
        <path
            d="M256.65 52H264.814L283.182 90H275.091L272.054 83.6059H249.871L246.931 90H238.816L256.65 52ZM269.017 77.2604L260.805 59.9987L252.811 77.2604H269.017Z"
            fill="white" />
        <path
            d="M289.086 52H308.402C311.317 52 313.844 52.308 315.982 52.9239C318.12 53.5236 319.894 54.3988 321.303 55.5496C322.712 56.7004 323.757 58.1024 324.438 59.7556C325.134 61.4088 325.482 63.2809 325.482 65.3717C325.482 66.7818 325.312 68.1271 324.972 69.4075C324.632 70.6718 324.105 71.8388 323.393 72.9085C322.696 73.9782 321.813 74.9345 320.744 75.7774C319.675 76.604 318.42 77.2928 316.978 77.8439L325.239 90H315.812L308.669 79.2054H308.45L296.788 79.1811V90H289.086V52ZM308.596 72.5195C310.054 72.5195 311.325 72.3493 312.411 72.009C313.512 71.6686 314.427 71.1904 315.156 70.5745C315.901 69.9586 316.452 69.2131 316.808 68.3378C317.181 67.4464 317.367 66.4577 317.367 65.3717C317.367 63.2485 316.638 61.6114 315.181 60.4607C313.723 59.2937 311.528 58.7102 308.596 58.7102H296.788V72.5195H308.596Z"
            fill="white" />
        <path d="M346.061 58.7588H332.042V52H367.783V58.7588H353.763V90H346.061V58.7588Z"
            fill="white" />
        <path
            d="M231.13 71.9802C231.13 76.5634 227.417 80.2788 222.837 80.2788C218.256 80.2788 214.543 76.5634 214.543 71.9802C214.543 67.3971 218.256 63.6817 222.837 63.6817C227.417 63.6817 231.13 67.3971 231.13 71.9802Z"
            fill="white" />
    </g>
    <defs>
        <filter id="filter0_dd_12_25" x="0.217407" y="0" width="427.565" height="150"
            filterUnits="userSpaceOnUse" color-interpolation-filters="sRGB">
            <feFlood flood-opacity="0" result="BackgroundImageFix" />
            <feColorMatrix in="SourceAlpha" type="matrix"
                values="0 0 0 0 0 0 0 0 0 0 0 0 0 0 0 0 0 0 127 0" result="hardAlpha" />
            <feOffset dx="-2" dy="-2" />
            <feGaussianBlur stdDeviation="25" />
            <feComposite in2="hardAlpha" operator="out" />
            <feColorMatrix type="matrix" values="0 0 0 0 0 0 0 0 0 0 0 0 0 0 0 0 0 0 0.1 0" />
            <feBlend mode="normal" in2="BackgroundImageFix" result="effect1_dropShadow_12_25" />
            <feColorMatrix in="SourceAlpha" type="matrix"
                values="0 0 0 0 0 0 0 0 0 0 0 0 0 0 0 0 0 0 127 0" result="hardAlpha" />
            <feOffset dx="10" dy="10" />
            <feGaussianBlur stdDeviation="25" />
            <feComposite in2="hardAlpha" operator="out" />
            <feColorMatrix type="matrix" values="0 0 0 0 0 0 0 0 0 0 0 0 0 0 0 0 0 0 0.1 0" />
            <feBlend mode="normal" in2="effect1_dropShadow_12_25" result="effect2_dropShadow_12_25" />
            <feBlend mode="normal" in="SourceGraphic" in2="effect2_dropShadow_12_25" result="shape" />
        </filter>
    </defs>
</svg>